{"title":"Mighty Magiswords 2016 S01E01 MushMenace 1080p Web-DL H264-RnC","uid":15827092,"size":470675396,"categoryP":"video","categoryS":"hd___tv_shows","magnet":"?xt=urn:btih:2cfa8754ad1a00ae1d4def2db4b72a5f30d3b8ec&amp;dn=Mighty+Magiswords+2016+S01E01+MushMenace+1080p+Web-DL+H264-RnC&amp;tr=udp%3A%2F%2Ftracker.leechers-paradise.org%3A6969&amp;tr=udp%3A%2F%2Fzer0day.ch%3A1337&amp;tr=udp%3A%2F%2Fopen.demonii.com%3A1337&amp;tr=udp%3A%2F%2Ftracker.coppersurfer.tk%3A6969&amp;tr=udp%3A%2F%2Fexodus.desync.com%3A6969","seeders":2,"leechers":0,"uploader":"Anon_up","files":1,"time":1473867257,"description":"Source : iTunes untouched\r\n\r\nMushroom Menace\r\n\r\nThe Mysterious Hooded Woman wants the Warriors For Hire to defend her giant pumpkin home from the dreaded Smashroom Mushroom, but Vambre and Prohyas can't complete their mission without help from Zombie Pumpkin Magisword!\r\n\r\nFormat                      : Matroska\r\nFormat version              : Version 4 / Version 2\r\nFile size                   : 449 MiB\r\nDuration                    : 11 min\r\nOverall bit rate            : 5 492 kb/s\r\nMovie name                  : RnC | Mighty.Magiswords.2016.S01E01.Mushroom.Menace\r\nEncoded date                : UTC 2016-09-10 09:18:41\r\n\r\n\r\nVideo\r\nID                          : 1\r\nFormat                      : AVC\r\nFormat/Info                 : Advanced Video Codec\r\nFormat profile              :   \r\nFormat settings, CABAC      : Yes\r\nFormat settings, ReFrames   : 4 frames\r\nCodec ID                    : V_MPEG4/ISO/AVC\r\nDuration                    : 11 min\r\nBit rate                    : 5 365 kb/s\r\nWidth                       : 1 920 pixels\r\nHeight                      : 1 080 pixels\r\nDisplay aspect ratio        : 16:9\r\nFrame rate mode             : Constant\r\nFrame rate                  : 23.976 (24000/1001) FPS\r\nColor space                 : YUV\r\nChroma subsampling          : 4:2:0\r\nBit depth                   : 8 bits\r\nScan type                   : Progressive\r\nBits/(Pixel*Frame)          : 0.108\r\nStream size                 : 439 MiB (98%)\r\nLanguage                    : English\r\nDefault                     : Yes\r\nForced                      : No\r\nColor range                 : Limited\r\nColor primaries             : BT.709\r\nTransfer characteristics    : BT.709\r\nMatrix coefficients         : BT.709\r\n\r\nAudio\r\nID                          : 2\r\nFormat                      : AAC\r\nFormat/Info                 : Advanced Audio Codec\r\nFormat profile              : LC\r\nCodec ID                    : A_AAC\r\nDuration                    : 11 min\r\nBit rate                    : 124 kb/s\r\nChannel(s)                  : 2 channels\r\nChannel positions           : Front: L R\r\nSampling rate               : 48.0 kHz\r\nFrame rate                  : 46.875 FPS (1024 spf)\r\nCompression mode            : Lossy\r\nStream size                 : 10.1 MiB (2%)\r\nLanguage                    : English\r\nDefault                     : Yes\r\nForced                      : No\r\n\r\nText\r\nID                          : 3\r\nFormat                      : UTF-8\r\nCodec ID                    : S_TEXT/UTF8\r\nCodec ID/Info               : UTF-8 Plain Text\r\nDuration                    : 11 min\r\nBit rate                    : 132 b/s\r\nCount of elements           : 353\r\nStream size                 : 10.9 KiB (0%)\r\nLanguage                    : English\r\nDefault                     : Yes\r\nForced                      : No","torrent":{"xt":"urn:btih:2cfa8754ad1a00ae1d4def2db4b72a5f30d3b8ec","amp;dn":"Mighty+Magiswords+2016+S01E01+MushMenace+1080p+Web-DL+H264-RnC","amp;tr":["udp%3A%2F%2Ftracker.leechers-paradise.org%3A6969","udp%3A%2F%2Fzer0day.ch%3A1337","udp%3A%2F%2Fopen.demonii.com%3A1337","udp%3A%2F%2Ftracker.coppersurfer.tk%3A6969","udp%3A%2F%2Fexodus.desync.com%3A6969"],"infoHash":"2cfa8754ad1a00ae1d4def2db4b72a5f30d3b8ec","infoHashBuffer":{"type":"Buffer","data":[44,250,135,84,173,26,0,174,29,77,239,45,180,183,42,95,48,211,184,236]},"announce":[],"urlList":[]}}